<svg id="Capa_1" data-name="Capa 1" xmlns="http://www.w3.org/2000/svg" viewBox="0 0 164.92 49.48"><defs><style>.cls-1{fill:#099;}</style></defs><title>Logo</title><path class="cls-1" d="M21.1,12.74a13.17,13.17,0,0,1,4.95,5,14.75,14.75,0,0,1,1.8,7.33,14.93,14.93,0,0,1-1.8,7.37,12.81,12.81,0,0,1-4.95,5A14,14,0,0,1,14,39.3a13.06,13.06,0,0,1-6.69-1.73,12,12,0,0,1-4.66-4.85V49.48H0V11.14H2.57v6.59a12.2,12.2,0,0,1,4.69-5A13,13,0,0,1,14,10.92,13.94,13.94,0,0,1,21.1,12.74ZM19.65,35.39a10.69,10.69,0,0,0,4.05-4.17,12.5,12.5,0,0,0,1.47-6.11A12.48,12.48,0,0,0,23.7,19a10.78,10.78,0,0,0-4.05-4.18,11.24,11.24,0,0,0-5.78-1.5,11.15,11.15,0,0,0-5.76,1.5A10.82,10.82,0,0,0,4.1,19a12.38,12.38,0,0,0-1.48,6.1A12.39,12.39,0,0,0,4.1,31.22a10.73,10.73,0,0,0,4,4.17,11.06,11.06,0,0,0,5.76,1.51A11.15,11.15,0,0,0,19.65,35.39Z"/><path class="cls-1" d="M39.92,37.49a13.24,13.24,0,0,1-5-5.06,14.75,14.75,0,0,1-1.82-7.32,14.74,14.74,0,0,1,1.82-7.31,13.3,13.3,0,0,1,5-5.06,15,15,0,0,1,14.3,0,13.21,13.21,0,0,1,5,5.06,14.64,14.64,0,0,1,1.83,7.31,14.65,14.65,0,0,1-1.83,7.32,13.14,13.14,0,0,1-5,5.06,15,15,0,0,1-14.3,0Zm12.91-2.1a10.73,10.73,0,0,0,4-4.17,12.5,12.5,0,0,0,1.47-6.11A12.48,12.48,0,0,0,56.84,19a10.82,10.82,0,0,0-4-4.18,11.81,11.81,0,0,0-11.52,0,10.82,10.82,0,0,0-4,4.18,12.38,12.38,0,0,0-1.48,6.1,12.39,12.39,0,0,0,1.48,6.11,10.73,10.73,0,0,0,4,4.17,11.74,11.74,0,0,0,11.52,0Z"/><path class="cls-1" d="M70,38.29a13.44,13.44,0,0,1-4.77-2.57l1.23-2.14A14.54,14.54,0,0,0,70.87,36a16.77,16.77,0,0,0,5.65,1q4.23,0,6.24-1.39a4.45,4.45,0,0,0,2-3.86,3.63,3.63,0,0,0-1.1-2.79A6.82,6.82,0,0,0,81,27.42c-1.08-.32-2.56-.66-4.45-1a35.74,35.74,0,0,1-5.35-1.29,8.34,8.34,0,0,1-3.48-2.24,6,6,0,0,1-1.45-4.29A6.71,6.71,0,0,1,69,13.09c1.84-1.44,4.45-2.17,7.84-2.17a19.17,19.17,0,0,1,5.3.75,13.36,13.36,0,0,1,4.29,2L85.2,15.8a13,13,0,0,0-3.91-1.88,15.94,15.94,0,0,0-4.5-.64,9.9,9.9,0,0,0-5.89,1.45,4.49,4.49,0,0,0-2,3.8A3.79,3.79,0,0,0,70,21.45,7.16,7.16,0,0,0,72.8,23a46.27,46.27,0,0,0,4.58,1.1,39.87,39.87,0,0,1,5.27,1.25,8,8,0,0,1,3.4,2.18,5.79,5.79,0,0,1,1.4,4.12,6.54,6.54,0,0,1-2.9,5.57c-1.92,1.39-4.64,2.08-8.14,2.08A20.12,20.12,0,0,1,70,38.29Z"/><path class="cls-1" d="M108.81,37.32a6.71,6.71,0,0,1-2.54,1.48,10.29,10.29,0,0,1-3.19.5,7.53,7.53,0,0,1-5.62-2,7.64,7.64,0,0,1-2-5.6V13.44H90.34v-2.3h5.14V5h2.67v6.11H107v2.3H98.15v18a5.86,5.86,0,0,0,1.32,4.14A5,5,0,0,0,103.35,37a6.21,6.21,0,0,0,4.34-1.55Z"/><path class="cls-1" d="M116,3.72a2,2,0,0,1-.64-1.52A2.12,2.12,0,0,1,116,.64,2.1,2.1,0,0,1,117.59,0a2.14,2.14,0,0,1,1.55.62,2,2,0,0,1,.65,1.52,2.13,2.13,0,0,1-.65,1.56,2.12,2.12,0,0,1-1.55.64A2.16,2.16,0,0,1,116,3.72Zm.21,7.42h2.68v28h-2.68Z"/><path class="cls-1" d="M134,37.49a13.08,13.08,0,0,1-5-5.06,14.64,14.64,0,0,1-1.82-7.32A14.71,14.71,0,0,1,129,17.75a12.87,12.87,0,0,1,5-5,14.64,14.64,0,0,1,7.28-1.8,14.06,14.06,0,0,1,6.14,1.32,11.12,11.12,0,0,1,4.47,3.83l-2,1.44a9.51,9.51,0,0,0-3.73-3.13,11.3,11.3,0,0,0-4.9-1.05,11.7,11.7,0,0,0-5.86,1.48A10.42,10.42,0,0,0,131.38,19a12.54,12.54,0,0,0-1.47,6.15,12.56,12.56,0,0,0,1.47,6.16,10.42,10.42,0,0,0,4.07,4.15,11.6,11.6,0,0,0,5.86,1.48,11.3,11.3,0,0,0,4.9-1,9.51,9.51,0,0,0,3.73-3.13l2,1.44A11.12,11.12,0,0,1,147.45,38a14.05,14.05,0,0,1-6.14,1.31A14.54,14.54,0,0,1,134,37.49Z"/></svg>